<svg xmlns="http://www.w3.org/2000/svg" xmlns:xlink="http://www.w3.org/1999/xlink" width="150" zoomAndPan="magnify" viewBox="0 0 112.5 112.499997" height="150" preserveAspectRatio="xMidYMid meet" version="1.0"><defs><clipPath id="99e96e6cd1"><path d="M 0 16.308594 L 112.003906 16.308594 L 112.003906 96 L 0 96 Z M 0 16.308594 " clip-rule="nonzero"/></clipPath></defs><g clip-path="url(#99e96e6cd1)"><path fill="#1a4509" d="M 83.476562 51.359375 L 68.613281 24.714844 L 52.605469 51.699219 L 32.433594 51.699219 L 51.519531 52.554688 L 51.519531 61.191406 C 46.214844 61.476562 41.347656 62.425781 37.285156 63.953125 C 46.359375 61.511719 55.589844 61.367188 64.925781 62.242188 C 44.601562 63.773438 21.054688 71.9375 6.035156 88.277344 C 3.917969 86.847656 1.898438 85.203125 0 83.292969 C 6.394531 75.675781 17.074219 69.488281 29.601562 65.753906 C 20.128906 67.429688 11.296875 72.136719 3.101562 78.800781 C 1.742188 77.929688 1.238281 75.414062 2.472656 73.394531 C 3.863281 71.117188 3.800781 70.347656 3.636719 69.011719 C 3.34375 66.617188 2.480469 64.628906 6.96875 64.492188 C 10.601562 64.378906 8.785156 61.0625 12.703125 61.265625 C 13.742188 61.316406 14.632812 61.460938 15.40625 61.613281 L 15.40625 59.632812 C 14.042969 59.367188 12.921875 58.429688 12.402344 57.183594 C 11.921875 57.6875 11.242188 58.003906 10.492188 58.003906 C 9.039062 58.003906 7.859375 56.832031 7.859375 55.386719 C 7.859375 54.59375 8.214844 53.882812 8.769531 53.402344 C 8.699219 53.164062 8.660156 52.914062 8.660156 52.652344 C 8.660156 52.011719 8.890625 51.425781 9.273438 50.972656 C 8.957031 50.449219 8.773438 49.835938 8.773438 49.179688 C 8.773438 47.851562 9.523438 46.699219 10.621094 46.113281 C 10.050781 45.632812 9.6875 44.914062 9.6875 44.113281 C 9.6875 42.667969 10.867188 41.492188 12.320312 41.492188 C 12.480469 41.492188 12.636719 41.507812 12.792969 41.535156 C 13.273438 41.019531 13.957031 40.695312 14.71875 40.695312 C 15.917969 40.695312 16.925781 41.492188 17.246094 42.578125 C 17.425781 42.539062 17.613281 42.519531 17.808594 42.519531 C 19.261719 42.519531 20.4375 43.691406 20.4375 45.136719 C 20.4375 45.304688 20.421875 45.464844 20.390625 45.625 C 21.648438 45.820312 22.609375 46.90625 22.609375 48.210938 C 22.609375 48.980469 22.277344 49.675781 21.746094 50.152344 C 23.230469 50.550781 24.324219 51.902344 24.324219 53.507812 C 24.324219 55.425781 22.761719 56.980469 20.835938 56.980469 C 20.605469 56.980469 20.378906 56.957031 20.160156 56.914062 C 20.140625 56.925781 20.117188 56.9375 20.097656 56.949219 C 19.601562 58.386719 18.328125 59.460938 16.777344 59.671875 L 16.777344 61.90625 C 17.8125 62.125 18.570312 62.234375 19.171875 61.890625 C 21.246094 60.707031 21.460938 57.445312 24.476562 58.589844 C 25.949219 59.148438 28.507812 59.8125 30.457031 59.386719 L 30.933594 65.042969 L 30.941406 51.699219 L 29.167969 51.699219 L 48.832031 21.867188 L 48.820312 16.371094 L 51.945312 16.339844 L 51.933594 38.957031 L 54.679688 34.890625 L 54.679688 21.867188 L 68.957031 21.867188 L 85.421875 51.242188 Z M 33.140625 54.246094 L 33.140625 64.894531 L 34.628906 64.496094 L 34.628906 54.246094 Z M 44.746094 55.613281 L 44.746094 58.6875 L 46.234375 58.6875 L 46.234375 55.613281 Z M 67.15625 41.769531 L 67.15625 43.429688 L 72.414062 43.429688 L 72.414062 41.769531 C 72.414062 38.007812 67.15625 37.941406 67.15625 41.769531 Z M 63.78125 53.136719 L 63.78125 60.890625 L 68.542969 60.890625 L 68.542969 53.136719 L 67.324219 53.136719 L 67.324219 60.140625 L 66.53125 53.136719 Z M 71.085938 53.136719 L 71.085938 60.890625 L 75.84375 60.890625 L 75.84375 53.136719 L 74.628906 53.136719 L 74.628906 60.140625 L 73.835938 53.136719 Z M 92.921875 52.050781 C 94.828125 51.855469 96.476562 50.800781 97.464844 49.277344 C 99.34375 48.660156 100.695312 46.898438 100.695312 44.820312 C 100.695312 44.546875 100.671875 44.277344 100.625 44.011719 C 101.757812 43.402344 102.527344 42.207031 102.527344 40.835938 C 102.527344 40.273438 102.398438 39.742188 102.171875 39.269531 C 102.355469 38.933594 102.460938 38.542969 102.460938 38.132812 C 102.460938 36.945312 101.597656 35.960938 100.460938 35.769531 C 100.570312 35.496094 100.628906 35.199219 100.628906 34.890625 C 100.628906 33.710938 99.777344 32.734375 98.65625 32.53125 C 98.660156 32.460938 98.660156 32.390625 98.660156 32.320312 C 98.660156 30.324219 97.035156 28.707031 95.03125 28.707031 C 94.148438 28.707031 93.335938 29.023438 92.707031 29.546875 C 92.296875 29.230469 91.789062 29.046875 91.234375 29.046875 C 90.023438 29.046875 89.023438 29.929688 88.851562 31.089844 C 87.007812 31.261719 85.566406 32.804688 85.566406 34.6875 C 85.566406 34.929688 85.59375 35.167969 85.640625 35.398438 C 83.710938 35.488281 82.175781 37.070312 82.175781 39.011719 C 82.175781 40.277344 82.832031 41.394531 83.824219 42.039062 C 83.636719 42.546875 83.53125 43.097656 83.53125 43.671875 C 83.53125 45.640625 84.75 47.328125 86.476562 48.023438 C 87.179688 49.957031 88.828125 51.441406 90.867188 51.917969 L 90.867188 54.816406 C 88.195312 55.144531 85.617188 54.621094 83.089844 53.109375 L 83.089844 63.355469 C 92.078125 67.1875 99.433594 71.945312 104.558594 77.972656 C 78.167969 54.496094 39.71875 61.871094 21.976562 94.820312 C 30.195312 96.535156 39.046875 96.097656 48.164062 94.75 L 48.164062 90.355469 C 48.066406 90.363281 47.972656 90.367188 47.875 90.367188 C 46.703125 90.367188 45.652344 89.859375 44.925781 89.054688 C 44.449219 89.414062 43.851562 89.628906 43.207031 89.628906 C 41.632812 89.628906 40.355469 88.355469 40.355469 86.789062 C 40.355469 85.433594 41.308594 84.296875 42.582031 84.015625 C 42.578125 83.957031 42.578125 83.894531 42.578125 83.835938 C 42.578125 83.753906 42.582031 83.667969 42.589844 83.585938 C 41.761719 83.277344 41.171875 82.480469 41.171875 81.550781 C 41.171875 80.347656 42.148438 79.371094 43.355469 79.371094 C 43.441406 79.371094 43.519531 79.375 43.601562 79.386719 L 43.617188 79.355469 C 43.207031 78.960938 42.949219 78.402344 42.949219 77.785156 C 42.949219 76.585938 43.925781 75.609375 45.132812 75.609375 C 45.316406 75.609375 45.492188 75.632812 45.660156 75.671875 C 45.957031 74.820312 46.769531 74.207031 47.726562 74.207031 C 48.164062 74.207031 48.574219 74.335938 48.917969 74.558594 C 49.113281 73.558594 50 72.804688 51.058594 72.804688 C 52.265625 72.804688 53.246094 73.78125 53.246094 74.984375 C 53.246094 75.078125 53.238281 75.171875 53.226562 75.265625 C 54.285156 75.417969 55.097656 76.324219 55.097656 77.417969 C 55.097656 77.851562 54.96875 78.257812 54.75 78.597656 C 55.578125 79.09375 56.136719 80 56.136719 81.03125 C 56.136719 81.652344 55.933594 82.226562 55.59375 82.695312 C 55.84375 83.117188 55.988281 83.605469 55.988281 84.132812 C 55.988281 84.546875 55.898438 84.941406 55.734375 85.296875 C 56.511719 85.804688 57.023438 86.679688 57.023438 87.671875 C 57.023438 89.242188 55.746094 90.511719 54.171875 90.511719 C 53.070312 90.511719 52.113281 89.890625 51.636719 88.980469 C 51.453125 89.015625 51.257812 89.039062 51.058594 89.039062 C 50.988281 89.039062 50.917969 89.035156 50.847656 89.03125 C 50.527344 89.390625 50.140625 89.695312 49.707031 89.921875 L 49.707031 94.511719 C 70.882812 91.164062 93.355469 83.316406 112.5 86.480469 C 110.289062 83.644531 107.9375 81.09375 105.472656 78.8125 L 106.871094 78.613281 C 110.996094 75.628906 111.078125 72.046875 106.722656 68.800781 C 104.664062 67.265625 104.527344 64.464844 106.433594 63.503906 C 108.445312 62.5 109.753906 56.464844 103.613281 56.046875 C 99.125 55.746094 100.4375 51.691406 94.296875 53.960938 C 93.835938 54.128906 93.378906 54.277344 92.921875 54.402344 L 92.921875 52.050781 " fill-opacity="1" fill-rule="evenodd"/></g></svg>